<?xml version="1.0" standalone="no"?>
<!DOCTYPE svg PUBLIC "-//W3C//DTD SVG 20010904//EN"
 "http://www.w3.org/TR/2001/REC-SVG-20010904/DTD/svg10.dtd">
<svg version="1.0" xmlns="http://www.w3.org/2000/svg"
 width="128.000000pt" height="128.000000pt" viewBox="0 0 128.000000 128.000000"
 preserveAspectRatio="xMidYMid meet">

<g transform="translate(0.000000,128.000000) scale(0.100000,-0.100000)"
fill="#000000" stroke="none">
<path d="M120 972 c14 -9 41 -32 61 -50 35 -31 39 -32 81 -23 48 12 210 13
248 2 38 -10 49 -46 55 -182 4 -86 2 -117 -4 -101 -6 12 -15 22 -21 22 -5 0
-10 11 -10 24 0 14 -8 31 -17 38 -10 7 -23 22 -29 32 -6 11 -19 24 -30 30 -10
6 -34 24 -53 39 -22 19 -39 26 -50 21 -9 -4 -34 -7 -57 -6 -30 1 -46 -3 -59
-18 -11 -12 -31 -20 -50 -20 -31 0 -65 -25 -65 -47 0 -6 7 -16 15 -23 14 -11
13 -14 -5 -27 -45 -32 -16 -56 55 -47 24 4 56 3 70 0 l27 -7 -28 -29 c-16 -16
-35 -30 -42 -30 -7 0 -11 -4 -8 -9 9 -13 -32 -44 -49 -37 -9 3 -13 2 -10 -4 3
-6 19 -10 34 -10 22 0 35 9 55 39 35 50 74 86 83 77 4 -4 -6 -18 -22 -32 l-30
-25 33 16 c30 15 52 13 52 -3 0 -4 -31 -35 -69 -69 l-69 -63 -101 24 c-56 13
-101 21 -101 17 0 -3 14 -30 30 -59 16 -29 26 -60 23 -68 -11 -29 7 -65 42
-81 33 -16 60 -13 121 13 11 5 64 -66 64 -86 0 -5 -6 -10 -13 -10 -7 0 -21 -6
-31 -13 -15 -11 -12 -12 22 -9 34 3 42 0 61 -27 22 -31 38 -32 71 -7 8 7 38
13 65 14 30 2 60 10 77 22 l26 19 7 -75 8 -76 23 28 c12 16 35 55 50 86 22 45
30 54 38 43 6 -7 53 -25 104 -39 l92 -25 28 23 c15 13 37 26 50 30 12 4 36 25
53 45 26 33 37 39 79 43 86 9 160 92 160 181 0 38 -18 87 -32 87 -4 0 -8 6 -8
14 0 14 -67 74 -107 95 -13 6 -23 19 -23 29 0 11 -3 13 -8 5 -5 -8 -12 -8 -25
2 -15 11 -16 17 -6 39 7 14 15 23 19 21 4 -2 5 8 2 22 l-5 27 -9 -23 c-17 -47
-71 -120 -97 -131 -25 -10 -71 -69 -71 -90 0 -13 -21 -13 -55 0 -22 8 -32 6
-53 -10 -28 -23 -42 -14 -42 29 0 16 4 22 15 17 11 -4 15 2 15 22 0 15 9 44
20 65 19 34 19 37 3 28 -55 -29 -86 -91 -82 -165 3 -41 -1 -52 -22 -68 l-24
-20 -3 78 c-5 122 15 335 33 354 19 19 208 27 275 11 42 -9 47 -8 75 18 17 16
46 38 65 50 l35 21 -525 -1 c-497 0 -524 -1 -500 -17z m980 -376 c0 -2 -7 -7
-16 -10 -8 -3 -12 -2 -9 4 6 10 25 14 25 6z m-668 -60 c-3 -5 -9 -1 -13 10
-12 31 -10 39 5 19 8 -11 12 -24 8 -29z m-62 -18 c0 -17 -76 -76 -85 -66 -2 2
12 28 31 57 27 40 38 50 45 40 5 -8 9 -22 9 -31z m199 -115 l-1 -58 -20 44
c-20 43 -20 45 -2 58 10 7 19 13 21 13 2 0 3 -26 2 -57z m580 1 c-17 -21 -63
-44 -89 -44 -14 0 -20 6 -20 21 0 16 4 19 18 13 27 -12 63 -7 80 10 21 21 28
21 11 0z m-1009 -64 c0 -14 -34 -12 -48 2 -7 7 -12 18 -12 25 0 11 6 10 30 -2
17 -9 30 -20 30 -25z"/>
</g>
</svg>
