<?xml version="1.0" standalone="no"?>
<!DOCTYPE svg PUBLIC "-//W3C//DTD SVG 20010904//EN"
 "http://www.w3.org/TR/2001/REC-SVG-20010904/DTD/svg10.dtd">
<svg version="1.0" xmlns="http://www.w3.org/2000/svg"
 width="16.000000pt" height="16.000000pt" viewBox="0 0 16.000000 16.000000"
 preserveAspectRatio="xMidYMid meet">

<g transform="translate(0.000000,16.000000) scale(0.100000,-0.100000)"
fill="#000000" stroke="none">
<path d="M66 106 c4 -10 -2 -12 -20 -9 -28 6 -34 -5 -14 -25 9 -9 8 -12 -5
-12 -22 0 -22 -9 1 -26 24 -19 83 -17 110 4 20 16 21 20 9 30 -10 9 -22 10
-41 2 -24 -9 -26 -7 -26 14 0 14 6 27 13 29 6 3 2 6 -10 6 -15 1 -21 -4 -17
-13z"/>
</g>
</svg>
